# xmcd CD database file
#
# Track frame offsets:
#	150
#	15283
#	30798
#	48561
#	62436
#	79232
#	97775
#	115432
#	132784
#	148849
#	165807
#	184877
#
# Disc length: 2697 seconds
#
# Revision: 0
# Processed by: cddbd v1.5.2PL0 Copyright (c) Steve Scherf et al.
# Submitted via: Feurio! 1.68 - http://www.feurio.com
#
DISCID=8a0a870c
DTITLE=Highspeed Hayride - Highspeed Hayride
DYEAR=2008
DGENRE=Country
TTITLE0=Boots
TTITLE1=Let Me Out (If You Call This Love)
TTITLE2=Settle For Lonely
TTITLE3=Before The Sun (I Don't Wanna Go Home)
TTITLE4=My Old Man
TTITLE5=She's Mine
TTITLE6=Reason To Lay Down
TTITLE7=My Lonely Mind
TTITLE8=Southern Man
TTITLE9=Why Me
TTITLE10=Light Another Candle
TTITLE11=Starting With Nothing
EXTD=
EXTT0=
EXTT1=
EXTT2=
EXTT3=
EXTT4=
EXTT5=
EXTT6=
EXTT7=
EXTT8=
EXTT9=
EXTT10=
EXTT11=
PLAYORDER=
